# xmcd
#
# Track frame offsets: 
#        150
#        15395
#        34842
#        51395
#        69290
#        82125
#        101387
#        118295
#        136330
#        154130
#        168255
#        186607
#        199182
#        219440
#        236317
#        253227
#        271170
#        287137
#
# Disc length: 4015 seconds
#
# Revision: 3
# Processed by: cddbd v1.5.1PL2 Copyright (c) Steve Scherf et al.
# Submitted via: ExactAudioCopy v0.95b3
#
DISCID=080fad12
DTITLE=Freddie King - The Best of Freddie King: The Shelter Records Ye
DTITLE=ars
DYEAR=2000
DGENRE=Blues
TTITLE0=Going Down
TTITLE1=Five Long Years
TTITLE2=Palace Of The King
TTITLE3=Some Old Blues
TTITLE4=Walking By Myself
TTITLE5=Living On The Highway
TTITLE6=I'd Rather Be Blind
TTITLE7=Reconsider Baby
TTITLE8=Big Legged Woman
TTITLE9=Lowdown In Lodi
TTITLE10=Me And My Guitar
TTITLE11=Woman Across The River
TTITLE12=Help Me Through The Day
TTITLE13=Boogie Man
TTITLE14=I'm Ready
TTITLE15=Please Send Me Someone To Love
TTITLE16=Ain't No Big Deal On You
TTITLE17=Guitar Boogie
EXTD=YEAR: 2000
EXTT0=
EXTT1=
EXTT2=
EXTT3=
EXTT4=
EXTT5=
EXTT6=
EXTT7=
EXTT8=
EXTT9=
EXTT10=
EXTT11=
EXTT12=
EXTT13=
EXTT14=
EXTT15=
EXTT16=
EXTT17=
PLAYORDER=
